<?xml version="1.0" encoding="utf-8"?>
<svg width="512" height="512" viewBox="0 0 512 512" xmlns="http://www.w3.org/2000/svg"
     xmlns:xlink="http://www.w3.org/1999/xlink">
  <defs>
    <!-- mdi: menu (Google @Google) -->
    <svg id="menu" width="100%" height="100%" viewBox="0 0 24 24">
      <path d="M0 0h24v24h-24z" fill="none" />
      <path d="M3 18h18v-2h-18v2zm0-5h18v-2h-18v2zm0-7v2h18v-2h-18z" />
    </svg>
    <!-- mdi: dots-vertical (Google @Google) -->
    <svg id="dots-vertical" width="100%" height="100%" viewBox="0 0 24 24">
      <path d="M12,16A2,2 0 0,1 14,18A2,2 0 0,1 12,20A2,2 0 0,1 10,18A2,2 0 0,1 12,16M12,10A2,2 0 0,1 14,12A2,2 0 0,1 12,14A2,2 0 0,1 10,12A2,2 0 0,1 12,10M12,4A2,2 0 0,1 14,6A2,2 0 0,1 12,8A2,2 0 0,1 10,6A2,2 0 0,1 12,4Z" />
    </svg>
    <!-- mdi: help-circle (Google @Google) -->
    <svg id="help" width="100%" height="100%" viewBox="0 0 24 24">
      <path d="M15.07,11.25L14.17,12.17C13.45,12.89 13,13.5 13,15H11V14.5C11,13.39 11.45,12.39 12.17,11.67L13.41,10.41C13.78,10.05 14,9.55 14,9C14,7.89 13.1,7 12,7A2,2 0 0,0 10,9H8A4,4 0 0,1 12,5A4,4 0 0,1 16,9C16,9.88 15.64,10.67 15.07,11.25M13,19H11V17H13M12,2A10,10 0 0,0 2,12A10,10 0 0,0 12,22A10,10 0 0,0 22,12C22,6.47 17.5,2 12,2Z" />
    </svg>
    <!-- mdi: login (Austin Andrews @Templarian) -->
    <svg id="login" width="100%" height="100%" viewBox="0 0 24 24">
      <path d="M10,17.25V14H3V10H10V6.75L15.25,12L10,17.25M8,2H17A2,2 0 0,1 19,4V20A2,2 0 0,1 17,22H8A2,2 0 0,1 6,20V16H8V20H17V4H8V8H6V4A2,2 0 0,1 8,2Z" />
    </svg>
    <!-- mdi: logout (Austin Andrews @Templarian) -->
    <svg id="logout" width="100%" height="100%" viewBox="0 0 24 24">
      <path d="M17,17.25V14H10V10H17V6.75L22.25,12L17,17.25M13,2A2,2 0 0,1 15,4V8H13V4H4V20H13V16H15V20A2,2 0 0,1 13,22H4A2,2 0 0,1 2,20V4A2,2 0 0,1 4,2H13Z" />
    </svg> 
  </defs>
</svg>