<?xml version="1.0" encoding="utf-8"?>
<svg width="512" height="512" viewBox="0 0 512 512" xmlns="http://www.w3.org/2000/svg"
     xmlns:xlink="http://www.w3.org/1999/xlink">
  <defs>
    <!-- mdi: dots-vertical (Google @Google) -->
    <svg id="menu" width="100%" height="100%" viewBox="0 0 24 24">
      <path d="M12,16A2,2 0 0,1 14,18A2,2 0 0,1 12,20A2,2 0 0,1 10,18A2,2 0 0,1 12,16M12,10A2,2 0 0,1 14,12A2,2 0 0,1 12,14A2,2 0 0,1 10,12A2,2 0 0,1 12,10M12,4A2,2 0 0,1 14,6A2,2 0 0,1 12,8A2,2 0 0,1 10,6A2,2 0 0,1 12,4Z" />
    </svg>
    <!-- mdi:checkbox-blank-outline (Google @Google) + signe plus de mdi:plus-circle-outline (Google @Google) -->
    <svg id="create" width="100%" height="100%" viewBox="0 0 24 24">
      <path d="m 13,7 -2,0 0,4 -4,0 0,2 4,0 0,4 2,0 0,-4 4,0 0,-2 -4,0 0,-4 z M 19,3 5,3 C 3.89,3 3,3.89 3,5 l 0,14 a 2,2 0 0 0 2,2 l 14,0 a 2,2 0 0 0 2,-2 L 21,5 C 21,3.89 20.1,3 19,3 M 19,5 19,19 5,19 5,5 19,5 Z" />
    </svg>
    <!-- mdi:content-duplicate (Austin Andrews @Templarian) -->
    <svg id="duplicate" width="100%" height="100%" viewBox="0 0 24 24">
      <path d="M11,17H4A2,2 0 0,1 2,15V3A2,2 0 0,1 4,1H16V3H4V15H11V13L15,16L11,19V17M19,21V7H8V13H6V7A2,2 0 0,1 8,5H19A2,2 0 0,1 21,7V21A2,2 0 0,1 19,23H8A2,2 0 0,1 6,21V19H8V21H19Z" />
    </svg>
    <!-- mdi: monitor (Google @Google) -->
    <svg id="read" width="100%" height="100%" viewBox="0 0 24 24">
      <path d="M21,16H3V4H21M21,2H3C1.89,2 1,2.89 1,4V16A2,2 0 0,0 3,18H10V20H8V22H16V20H14V18H21A2,2 0 0,0 23,16V4C23,2.89 22.1,2 21,2Z" />
    </svg>
    <!-- mdi: pencil (Google @Google) -->
    <svg id="update" width="100%" height="100%" viewBox="0 0 24 24">
      <path d="M20.71,7.04C21.1,6.65 21.1,6 20.71,5.63L18.37,3.29C18,2.9 17.35,2.9 16.96,3.29L15.12,5.12L18.87,8.87M3,17.25V21H6.75L17.81,9.93L14.06,6.18L3,17.25Z" />
    </svg>
    <!-- mdi: delete (Google @Google) -->
    <svg id="delete" width="100%" height="100%" viewBox="0 0 24 24">
      <path d="M19,4H15.5L14.5,3H9.5L8.5,4H5V6H19M6,19A2,2 0 0,0 8,21H16A2,2 0 0,0 18,19V7H6V19Z" />
    </svg>
    <!-- mdi: undo (Google @Google) -->
    <svg id="cancel" width="100%" height="100%" viewBox="0 0 24 24">
      <path d="M12.5,8C9.85,8 7.45,9 5.6,10.6L2,7V16H11L7.38,12.38C8.77,11.22 10.54,10.5 12.5,10.5C16.04,10.5 19.05,12.81 20.1,16L22.47,15.22C21.08,11.03 17.15,8 12.5,8Z" />
    </svg>
    <!-- mdi: keyboard-backspace (Google @Google) -->
    <svg id="return" width="100%" height="100%" viewBox="0 0 24 24">
      <path d="M21,11H6.83L10.41,7.41L9,6L3,12L9,18L10.41,16.58L6.83,13H21V11Z" />
    </svg>
    <!-- mdi: content-save (Google @Google) -->
    <svg id="save" width="100%" height="100%" viewBox="0 0 24 24">
      <path d="M15,9H5V5H15M12,19A3,3 0 0,1 9,16A3,3 0 0,1 12,13A3,3 0 0,1 15,16A3,3 0 0,1 12,19M17,3H5C3.89,3 3,3.9 3,5V19A2,2 0 0,0 5,21H19A2,2 0 0,0 21,19V7L17,3Z" />
    </svg>
  </defs>
</svg>
