<?xml version="1.0" encoding="utf-8"?>

<!-- default hex color for dl svg : #3A5C5E-->
<svg width="512" height="512" viewBox="0 0 512 512" xmlns="http://www.w3.org/2000/svg"
     xmlns:xlink="http://www.w3.org/1999/xlink">
    <defs>
        <!-- mdi: calendar-clock (Austin Andrews @Templarian) -->
        <svg id="edt" width="100%" height="100%" viewBox="0 0 24 24">
            <path d="M15,13H16.5V15.82L18.94,17.23L18.19,18.53L15,16.69V13M19,8H5V19H9.67C9.24,18.09 9,17.07 9,16A7,7 0 0,1 16,9C17.07,9 18.09,9.24 19,9.67V8M5,21C3.89,21 3,20.1 3,19V5C3,3.89 3.89,3 5,3H6V1H8V3H16V1H18V3H19A2,2 0 0,1 21,5V11.1C22.24,12.36 23,14.09 23,16A7,7 0 0,1 16,23C14.09,23 12.36,22.24 11.1,21H5M16,11.15A4.85,4.85 0 0,0 11.15,16C11.15,18.68 13.32,20.85 16,20.85A4.85,4.85 0 0,0 20.85,16C20.85,13.32 18.68,11.15 16,11.15Z" />
        </svg>
        <!-- mdi: book (Google @Google) -->
        <svg id="cdt" width="100%" height="100%" viewBox="0 0 24 24">
            <path d="M18,22A2,2 0 0,0 20,20V4C20,2.89 19.1,2 18,2H12V9L9.5,7.5L7,9V2H6A2,2 0 0,0 4,4V20A2,2 0 0,0 6,22H18Z" />
        </svg>
        <!-- mdi: format-list-bulleted (Google @Google) -->
        <svg id="todo" width="100%" height="100%" viewBox="0 0 24 24">
            <path d="M7,5V7H21V5M7,13H21V11H7M7,19H21V17H7M4,16.67C3.26,16.67 2.67,17.27 2.67,18C2.67,18.73 3.27,19.33 4,19.33C4.73,19.33 5.33,18.73 5.33,18C5.33,17.27 4.74,16.67 4,16.67M4,4.5A1.5,1.5 0 0,0 2.5,6A1.5,1.5 0 0,0 4,7.5A1.5,1.5 0 0,0 5.5,6A1.5,1.5 0 0,0 4,4.5M4,10.5A1.5,1.5 0 0,0 2.5,12A1.5,1.5 0 0,0 4,13.5A1.5,1.5 0 0,0 5.5,12A1.5,1.5 0 0,0 4,10.5Z" />
        </svg>
        <!-- mdi: folder-multiple (Austin Andrews @Templarian) -->
        <svg id="ged" width="100%" height="100%" viewBox="0 0 24 24">
            <path d="M22,4H14L12,2H6A2,2 0 0,0 4,4V16A2,2 0 0,0 6,18H22A2,2 0 0,0 24,16V6A2,2 0 0,0 22,4M2,6H0V11H0V20A2,2 0 0,0 2,22H20V20H2V6Z" />
        </svg>
        <!-- mdi: account-multiple (Google @Google) -->
        <svg id="gdg" width="100%" height="100%" viewBox="0 0 24 24">
            <path d="M16,13C15.71,13 15.38,13 15.03,13.05C16.19,13.89 17,15 17,16.5V19H23V16.5C23,14.17 18.33,13 16,13M8,13C5.67,13 1,14.17 1,16.5V19H15V16.5C15,14.17 10.33,13 8,13M8,11A3,3 0 0,0 11,8A3,3 0 0,0 8,5A3,3 0 0,0 5,8A3,3 0 0,0 8,11M16,11A3,3 0 0,0 19,8A3,3 0 0,0 16,5A3,3 0 0,0 13,8A3,3 0 0,0 16,11Z" />
        </svg>
        <!-- mdi: settings (Google @Google) -->
        <svg id="settings" width="100%" height="100%" viewBox="0 0 24 24">
            <path d="M12,15.5A3.5,3.5 0 0,1 8.5,12A3.5,3.5 0 0,1 12,8.5A3.5,3.5 0 0,1 15.5,12A3.5,3.5 0 0,1 12,15.5M19.43,12.97C19.47,12.65 19.5,12.33 19.5,12C19.5,11.67 19.47,11.34 19.43,11L21.54,9.37C21.73,9.22 21.78,8.95 21.66,8.73L19.66,5.27C19.54,5.05 19.27,4.96 19.05,5.05L16.56,6.05C16.04,5.66 15.5,5.32 14.87,5.07L14.5,2.42C14.46,2.18 14.25,2 14,2H10C9.75,2 9.54,2.18 9.5,2.42L9.13,5.07C8.5,5.32 7.96,5.66 7.44,6.05L4.95,5.05C4.73,4.96 4.46,5.05 4.34,5.27L2.34,8.73C2.21,8.95 2.27,9.22 2.46,9.37L4.57,11C4.53,11.34 4.5,11.67 4.5,12C4.5,12.33 4.53,12.65 4.57,12.97L2.46,14.63C2.27,14.78 2.21,15.05 2.34,15.27L4.34,18.73C4.46,18.95 4.73,19.03 4.95,18.95L7.44,17.94C7.96,18.34 8.5,18.68 9.13,18.93L9.5,21.58C9.54,21.82 9.75,22 10,22H14C14.25,22 14.46,21.82 14.5,21.58L14.87,18.93C15.5,18.67 16.04,18.34 16.56,17.94L19.05,18.95C19.27,19.03 19.54,18.95 19.66,18.73L21.66,15.27C21.78,15.05 21.73,14.78 21.54,14.63L19.43,12.97Z" />
        </svg>
        <!-- mdi: key-variant (Austin Andrews @Templarian) -->
        <svg id="permissions" width="100%" height="100%" viewBox="0 0 24 24">
            <path d="M22,18V22H18V19H15V16H12L9.74,13.74C9.19,13.91 8.61,14 8,14A6,6 0 0,1 2,8A6,6 0 0,1 8,2A6,6 0 0,1 14,8C14,8.61 13.91,9.19 13.74,9.74L22,18M7,5A2,2 0 0,0 5,7A2,2 0 0,0 7,9A2,2 0 0,0 9,7A2,2 0 0,0 7,5Z" />
        </svg>
        <!-- sm: account-settings ~ mdi: account-star-variant (REJack @REJack89) + settings (Google @Google) -->
        <svg id="roles" width="100%" height="100%" viewBox="0 0 24 24">
            <path d="m 18.891733,12.17 a 1.4,1.4 0 0 1 -1.4,-1.4 1.4,1.4 0 0 1 1.4,-1.4000003 1.4,1.4 0 0 1 1.4,1.4000003 1.4,1.4 0 0 1 -1.4,1.4 m 2.972,-1.012 c 0.016,-0.128 0.028,-0.256 0.028,-0.388 0,-0.132 -0.012,-0.264 -0.028,-0.4 l 0.844,-0.652 c 0.076,-0.06 0.096,-0.1679999 0.048,-0.2560003 l -0.8,-1.384 c -0.048,-0.088 -0.156,-0.124 -0.244,-0.088 l -0.996,0.4 c -0.208,-0.156 -0.424,-0.292 -0.676,-0.392 l -0.148,-1.06 c -0.016,-0.096 -0.1,-0.168 -0.2,-0.168 l -1.6,0 c -0.1,0 -0.184,0.072 -0.2,0.168 l -0.148,1.06 c -0.252,0.1 -0.468,0.236 -0.676,0.392 l -0.996,-0.4 c -0.088,-0.036 -0.196,0 -0.244,0.088 l -0.8,1.384 c -0.052,0.088 -0.028,0.1960003 0.048,0.2560003 l 0.844,0.652 c -0.016,0.136 -0.028,0.268 -0.028,0.4 0,0.132 0.012,0.26 0.028,0.388 l -0.844,0.664 c -0.076,0.06 -0.1,0.168 -0.048,0.256 l 0.8,1.384 c 0.048,0.088 0.156,0.12 0.244,0.088 l 0.996,-0.404 c 0.208,0.16 0.424,0.296 0.676,0.396 l 0.148,1.06 c 0.016,0.096 0.1,0.168 0.2,0.168 l 1.6,0 c 0.1,0 0.184,-0.072 0.2,-0.168 l 0.148,-1.06 c 0.252,-0.104 0.468,-0.236 0.676,-0.396 l 0.996,0.404 c 0.088,0.032 0.196,0 0.244,-0.088 l 0.8,-1.384 c 0.048,-0.088 0.028,-0.196 -0.048,-0.256 l -0.844,-0.664 z M 9,12 A 4,4 0 0 1 5,8 4,4 0 0 1 9,4 4,4 0 0 1 13,8 4,4 0 0 1 9,12 m 0,2 c 2.67,0 8,1.33 8,4 l 0,2 -16,0 0,-2 c 0,-2.67 5.33,-4 8,-4" />
        </svg>
    
        <svg id="new-project" width="100%" height="100%" viewBox="0 0 24 24">
            <path d="M0 0h24v24H0z" fill="none"/>
            <path d="M14 2H6c-1.1 0-1.99.9-1.99 2L4 20c0 1.1.89 2 1.99 2H18c1.1 0 2-.9 2-2V8l-6-6zm2 14h-3v3h-2v-3H8v-2h3v-3h2v3h3v2zm-3-7V3.5L18.5 9H13z"/>
        </svg>
    </defs>
</svg>