<?xml version="1.0" encoding="utf-8"?>
<svg width="512" height="512" viewBox="0 0 512 512" xmlns="http://www.w3.org/2000/svg"
     xmlns:xlink="http://www.w3.org/1999/xlink">
  <defs>
    <!-- mdi: delete (Google @Google) -->
    <svg id="delete" width="100%" height="100%" viewBox="0 0 24 24">
      <path d="M19,4H15.5L14.5,3H9.5L8.5,4H5V6H19M6,19A2,2 0 0,0 8,21H16A2,2 0 0,0 18,19V7H6V19Z" />
    </svg>
    <!-- mdi: undo (Google @Google) -->
    <svg id="cancel" width="100%" height="100%" viewBox="0 0 24 24">
      <path d="M12.5,8C9.85,8 7.45,9 5.6,10.6L2,7V16H11L7.38,12.38C8.77,11.22 10.54,10.5 12.5,10.5C16.04,10.5 19.05,12.81 20.1,16L22.47,15.22C21.08,11.03 17.15,8 12.5,8Z" />
    </svg>
  </defs>
</svg>
