<?xml version="1.0" encoding="utf-8"?>
<svg width="512" height="512" viewBox="0 0 512 512" xmlns="http://www.w3.org/2000/svg"
     xmlns:xlink="http://www.w3.org/1999/xlink">
    <defs>
        <!-- mdi: menu (Google @Google) -->
        <svg id="menu" width="100%" height="100%" viewBox="0 0 24 24">
            <path d="M0 0h24v24h-24z" fill="none" />
            <path d="M3 18h18v-2h-18v2zm0-5h18v-2h-18v2zm0-7v2h18v-2h-18z" />
        </svg>
        <!-- mdi: dots-vertical (Google @Google) -->
        <svg id="dots-vertical" width="100%" height="100%" viewBox="0 0 24 24">
            <path d="M12,16A2,2 0 0,1 14,18A2,2 0 0,1 12,20A2,2 0 0,1 10,18A2,2 0 0,1 12,16M12,10A2,2 0 0,1 14,12A2,2 0 0,1 12,14A2,2 0 0,1 10,12A2,2 0 0,1 12,10M12,4A2,2 0 0,1 14,6A2,2 0 0,1 12,8A2,2 0 0,1 10,6A2,2 0 0,1 12,4Z" />
        </svg>
        <!-- mdi: signup (Google @Google) -->
        <svg id="signup" style="width:24px;height:24px" viewBox="0 0 24 24">
            <path d="M15,14C12.33,14 7,15.33 7,18V20H23V18C23,15.33 17.67,14 15,14M6,10V7H4V10H1V12H4V15H6V12H9V10M15,12A4,4 0 0,0 19,8A4,4 0 0,0 15,4A4,4 0 0,0 11,8A4,4 0 0,0 15,12Z" />
        </svg>
        <!-- mdi: login (Austin Andrews @Templarian) -->
        <svg id="login" width="100%" height="100%" viewBox="0 0 24 24">
            <path d="M10,17.25V14H3V10H10V6.75L15.25,12L10,17.25M8,2H17A2,2 0 0,1 19,4V20A2,2 0 0,1 17,22H8A2,2 0 0,1 6,20V16H8V20H17V4H8V8H6V4A2,2 0 0,1 8,2Z" />
        </svg>
        <!-- mdi: logout (Austin Andrews @Templarian) -->
        <svg id="logout" width="100%" height="100%" viewBox="0 0 24 24">
            <path d="M17,17.25V14H10V10H17V6.75L22.25,12L17,17.25M13,2A2,2 0 0,1 15,4V8H13V4H4V20H13V16H15V20A2,2 0 0,1 13,22H4A2,2 0 0,1 2,20V4A2,2 0 0,1 4,2H13Z" />
        </svg> 
    </defs>
</svg>